<svg width="49" height="42" viewBox="0 0 49 42" fill="none" xmlns="http://www.w3.org/2000/svg">
<path fill-rule="evenodd" clip-rule="evenodd" d="M22.7253 0.367654C22.3761 0.795488 22.4398 1.42544 22.8676 1.77469L45.1936 20H1C0.447716 20 0 20.4477 0 21C0 21.5523 0.447716 22 1 22H45.1937L22.8676 40.2253C22.4398 40.5746 22.3761 41.2045 22.7253 41.6324C23.0746 42.0602 23.7045 42.1239 24.1324 41.7747L48.6161 21.788C48.6476 21.7633 48.6779 21.7364 48.7068 21.7075C48.7922 21.6224 48.8593 21.5249 48.9077 21.4202C49.0344 21.1459 49.0323 20.8226 48.8915 20.5465C48.8474 20.4597 48.79 20.3782 48.7196 20.3055C48.6865 20.2711 48.6514 20.2396 48.6147 20.2109L24.1323 0.22537C23.7045 -0.123882 23.0746 -0.0601794 22.7253 0.367654Z" fill="white"/>
</svg>
