<svg width="26" height="36" viewBox="0 0 26 36" fill="none" xmlns="http://www.w3.org/2000/svg">
<path fill-rule="evenodd" clip-rule="evenodd" d="M25 13V23C25 29.6274 19.6274 35 13 35C6.37258 35 1 29.6274 1 23V13C1 6.37258 6.37258 1 13 1C19.6274 1 25 6.37258 25 13ZM0 13C0 5.8203 5.8203 0 13 0C20.1797 0 26 5.8203 26 13V23C26 30.1797 20.1797 36 13 36C5.8203 36 0 30.1797 0 23V13ZM13 7.90259C12.4477 7.90259 12 8.3503 12 8.90259V13.0489C12 13.6012 12.4477 14.0489 13 14.0489C13.5523 14.0489 14 13.6012 14 13.0489V8.90259C14 8.3503 13.5523 7.90259 13 7.90259Z" fill="white"/>
</svg>
