<svg width="49" height="42" viewBox="0 0 49 42" fill="none" xmlns="http://www.w3.org/2000/svg">
<path fill-rule="evenodd" clip-rule="evenodd" d="M26.2747 0.367654C26.624 0.795488 26.5603 1.42544 26.1324 1.77469L3.80644 20H48C48.5523 20 49 20.4477 49 21C49 21.5523 48.5523 22 48 22H3.80637L26.1324 40.2253C26.5602 40.5746 26.6239 41.2045 26.2747 41.6324C25.9254 42.0602 25.2955 42.1239 24.8677 41.7747L0.383948 21.788C0.352419 21.7633 0.322115 21.7364 0.293243 21.7075C0.207865 21.6224 0.140722 21.5249 0.0923508 21.4202C-0.0343951 21.1459 -0.0322479 20.8226 0.108519 20.5465C0.152653 20.4597 0.210076 20.3782 0.280465 20.3055C0.313563 20.2711 0.348646 20.2396 0.385378 20.2109L24.8677 0.22537C25.2955 -0.123882 25.9255 -0.0601793 26.2747 0.367654Z" fill="white"/>
</svg>
